<svg version="1.1" xmlns="http://www.w3.org/2000/svg" viewBox="0 0 139.53955385921518 131.7013286961586"
    width="279.07910771843035" height="263.4026573923172">
    <!-- svg-source:excalidraw -->
    <g stroke-linecap="round" transform="translate(10 9.999999999999972) rotate(0 59.76977692960759 55.85066434807932)">
        <path
            d="M86.92 6.01 C94.95 8.79, 102.71 15.63, 107.94 22.63 C113.17 29.62, 116.82 39.19, 118.29 48.01 C119.75 56.82, 119.62 67.47, 116.74 75.51 C113.85 83.54, 108 90.6, 100.96 96.23 C93.92 101.86, 83.48 107.02, 74.48 109.3 C65.48 111.58, 56.04 111.65, 46.97 109.91 C37.9 108.18, 27.06 104.28, 20.05 98.88 C13.05 93.49, 8.25 85.69, 4.95 77.54 C1.65 69.39, -0.63 58.78, 0.23 49.99 C1.09 41.2, 4.92 32.05, 10.09 24.82 C15.26 17.58, 23.17 10.83, 31.25 6.6 C39.34 2.38, 48.2 -0.83, 58.61 -0.53 C69.02 -0.23, 87.23 6.02, 93.71 8.4 C100.2 10.78, 98.37 12.91, 97.53 13.74 M40.9 2.22 C48.94 -1.49, 59.89 -1.17, 68.77 0.42 C77.65 2, 86.93 6.83, 94.16 11.73 C101.39 16.64, 108.14 22.12, 112.14 29.85 C116.14 37.59, 117.96 49.38, 118.17 58.14 C118.39 66.9, 117.89 74.77, 113.41 82.39 C108.92 90.01, 99.27 98.87, 91.29 103.88 C83.3 108.88, 74.51 111.89, 65.51 112.42 C56.51 112.95, 45.99 110.42, 37.28 107.06 C28.56 103.7, 19.06 98.87, 13.21 92.25 C7.37 85.63, 3.82 75.64, 2.19 67.33 C0.55 59.01, 1.09 50.65, 3.41 42.36 C5.72 34.07, 9.85 24.36, 16.07 17.59 C22.28 10.81, 36.52 3.98, 40.7 1.71 C44.89 -0.55, 41.18 2.81, 41.16 3.98"
            stroke="#000000" stroke-width="1" fill="#ffffff"></path>
        <path
            d="M10.16 24.73 C10.16 24.73, 10.16 24.73, 10.16 24.73 M10.16 24.73 C10.16 24.73, 10.16 24.73, 10.16 24.73 M5.06 34.74 C11.35 26.33, 20.82 20.27, 31.84 8.39 M5.63 34.74 C14.03 25.95, 22.7 16.04, 30.8 6.04 M1.76 45.69 C11.73 35.3, 21.38 25.53, 35.19 8.63 M1.2 47.49 C11.99 34.42, 23.29 22.29, 35.06 9 M3.19 52.05 C9.92 39.5, 22.08 30.95, 38.98 9.62 M1.27 52.62 C15.66 37.29, 26.96 24.23, 41.38 8.53 M3.89 58.02 C19.16 39.82, 35.16 18.61, 47.03 6.52 M3.34 56.89 C18.37 40, 33.51 22.51, 48.32 6.3 M4.94 62.19 C23.2 40.44, 40.27 20.27, 59.84 -1.07 M3.81 61.32 C23.66 39.43, 41.12 17.74, 59.32 -1.63 M4.88 67.62 C18.78 49.6, 33.52 34.27, 64.32 -0.03 M5.66 66.44 C27.38 40.85, 49.79 15.34, 63.24 -0.48 M3.76 73.78 C22.19 54.11, 38.61 31.98, 69.34 0.1 M5.44 73.33 C24.26 52.91, 39.62 32, 66.86 2.1 M5.88 77.62 C29.78 54.63, 50.08 26.19, 70.91 1.5 M6.87 77.81 C22.14 60.76, 37.15 42.55, 70.86 3.6 M8.53 80.76 C24.9 62.72, 45.51 41.5, 75.48 5.81 M8.45 80.77 C31.13 55.75, 53.47 30.99, 76.03 3.49 M9.48 86.77 C24.5 68.43, 39.01 50.92, 80.65 5.37 M9.84 84.59 C27.95 65.73, 45.41 44.02, 80.87 5.56 M13.66 89.68 C40.59 56.63, 71.14 22.12, 84.63 5.69 M13.38 88.72 C29.14 69.11, 46.25 49.11, 85.9 5.59 M15.93 91.45 C29.53 75.45, 48.39 57.05, 87.02 9.28 M15.78 92.33 C36.11 68.86, 55.43 45.73, 89.3 8.18 M17.84 93.26 C40.6 71.62, 58.96 46.34, 90.1 9.03 M17.7 94.69 C41.17 69.02, 63.99 43.69, 91.15 9.4 M20.34 98.7 C49.11 65.9, 80.82 32.41, 94.39 14.07 M19.42 97.51 C44.2 69.37, 69.82 41.22, 95.76 11.65 M25.24 100.32 C52.97 66.84, 80.42 34.34, 97.31 14.2 M23.07 100.63 C51.96 67.62, 79.28 36.16, 97.3 15.32 M26.62 104.36 C42.74 85.29, 56.83 68.8, 99.31 18.18 M27.01 103.8 C55.17 70.92, 83.86 37.82, 100.72 18.11 M31.57 106.04 C46.24 86.95, 65.08 67.61, 105.26 20.21 M31.37 105.16 C46.88 86.12, 63.79 67.42, 104.09 20.71 M34.95 106.47 C51.48 84.96, 69.59 67.73, 105.86 22.42 M35.74 105.29 C58.8 77.05, 84.63 48.26, 106.86 22.37 M36.8 107.76 C62.96 78.8, 88.02 47.6, 111.8 25.17 M39.42 107.37 C64.65 75.73, 92.52 43.98, 110.85 24.34 M43.08 107.67 C61.67 89.4, 77.97 68.99, 113.07 27.25 M43.06 109.05 C59.49 90.73, 76.1 70.89, 112.52 29.21 M49.06 108.43 C65.72 92.28, 82.14 72.74, 113.09 31.64 M46.91 110.28 C67.71 86.36, 88.78 62.37, 113.87 33.74 M53.52 110.95 C73.97 84.44, 96.05 61.06, 114.12 36.5 M53.88 108.77 C70.23 88.57, 87.69 69.47, 116.84 37.07 M56.7 108.6 C78.79 88.05, 95.88 63.87, 119.36 40.97 M58.41 110.81 C70.23 94.98, 84.74 78.52, 118.2 41.53 M64.45 110.7 C85.86 83.97, 104.3 61.1, 117.7 44.35 M63.45 109.89 C84.17 83.97, 107.34 58.91, 119.21 45.07 M67.64 111.74 C88.04 87.45, 109.73 62.91, 119.8 50.17 M68.77 109.12 C84.32 93.3, 98.38 76.36, 120.55 50.34 M76.21 108.68 C90.4 88.24, 108.27 69.7, 119.48 56.65 M73.87 109.53 C86.98 95.55, 98.66 82.06, 120.63 56.32 M76.68 112.44 C93.29 92.17, 110.55 73.89, 120.48 61.66 M76.39 112.79 C85.96 102.24, 93.87 92.65, 119.19 62.47 M85.97 107.53 C95.41 96.53, 107.12 83.78, 117.9 69.82 M86.77 107.95 C96.06 96.18, 107.13 83.86, 119.62 68.82 M20.05 98.88 C20.05 98.88, 20.05 98.88, 20.05 98.88 M20.05 98.88 C20.05 98.88, 20.05 98.88, 20.05 98.88 M30.17 104.28 C22.98 98.2, 19.26 92.61, 9.81 86.47 M31.73 104.17 C25.38 98.87, 19.99 92.07, 9.73 85.02 M45.29 108.56 C31.36 96.76, 17.44 85.25, 5.24 77.03 M43.53 107.86 C32.78 99.01, 22.22 90.44, 6.27 75.44 M49.85 107.29 C37.05 97.53, 21.36 85.13, 6.3 68.71 M49.61 108.83 C35.01 95.25, 19.63 82.16, 5.48 69.25 M54.54 109.29 C35.48 92.01, 16.47 74.98, 3.73 62.2 M55.39 108.14 C35.42 90.64, 16.14 74.19, 4.97 62.94 M58.42 105.58 C44.99 93.43, 28.53 80.17, 4.46 57.53 M60.33 107.55 C42.32 92.04, 26.23 78.26, 2.08 56.99 M68.47 106.51 C44.91 91.15, 27.22 73.7, -0.17 49.36 M66.39 107.84 C40.8 85.58, 16.03 63.63, 1.01 50.23 M75.62 108.41 C55.44 94.39, 41.26 76.9, 3.42 46.08 M74.86 108.48 C48.44 86.51, 23.17 65.49, 1.45 46.19 M77.44 107.51 C59.28 91.56, 40.06 76.21, 4.92 40.72 M77.96 106.82 C58.71 89.49, 38.66 72.43, 3.41 40.99 M81.23 103.75 C53.67 78.05, 22.65 54.43, 4.98 37.89 M82.84 104.84 C62.13 86.45, 42.19 69.65, 4.87 37.52 M86.96 103.42 C62.41 83.38, 43.23 64.63, 6.16 32.53 M85.34 103.09 C67.8 88.03, 48.64 69.66, 5.67 33.24 M91.27 101.81 C57.49 71.86, 27.96 45.62, 7.75 30.38 M90.87 102.34 C64.73 81.45, 39.86 58.62, 9.13 29.83 M94.46 100.38 C73.92 80.86, 52.37 62.22, 8.4 26.03 M94.35 99.97 C59.56 71.41, 26.52 41.99, 9.64 26.33 M99.55 96.03 C68.05 72.02, 42.27 45.48, 13.76 24.03 M98.04 98.28 C71.2 74.86, 44.58 53.19, 11.1 23.36 M99.7 95.71 C72.05 66.56, 39.1 41.34, 13.6 19.59 M101.9 96.3 C69.59 67.42, 36.23 39.47, 14.99 19.02 M103.52 91.64 C81.82 74.56, 60.14 54.61, 16.66 19.1 M103.75 92.05 C82.43 73.87, 62.45 55.17, 18 18.43 M107.06 87.89 C75.19 61.53, 44.83 37.62, 19.6 16.06 M106.15 88.35 C73.43 62.37, 40.83 33.76, 21.94 14.89 M109.04 86.31 C80.43 62.43, 53.66 39.01, 25.23 11.69 M108.48 85.78 C89.32 69.31, 69.22 51.45, 24.82 11.51 M111.58 81.8 C82.95 55.03, 51.85 30.77, 25.58 8.1 M110.61 83.14 C80.85 57.42, 52.72 31.96, 26.76 9.63 M112.04 80.16 C90.33 59.44, 67.05 39.7, 29.34 6.99 M113.52 80.39 C85.48 53.8, 55.35 29.99, 30.36 6.5 M115.17 77.45 C98.3 61.75, 83.28 44.58, 32.64 6.13 M116.38 77.12 C86.47 50.5, 56.15 24.39, 32.31 5 M120.89 73.78 C102.29 56.06, 82.25 41.77, 40.03 3.31 M119.22 73.54 C89.79 48.97, 60.56 22.85, 37.28 2.68 M118.07 70.04 C92.67 45.25, 62.98 21.71, 43 1.66 M119.55 68.24 C99.25 49.81, 79 33.88, 43.27 2.18 M119.25 64.3 C89.47 39.53, 61.98 14.72, 47.45 -1.23 M117.96 63.79 C101.44 48.26, 84.3 32.96, 48.02 1.51 M117.67 59.86 C94.48 35.6, 67.35 14.06, 52.48 0.73 M120.06 57.85 C94.24 35.46, 66.25 12.04, 52.59 -0.83 M117.74 54.48 C107.86 43, 95.34 29.69, 58.12 -0.05 M119.75 53.59 C101.13 37.93, 83.11 21.38, 56.06 -0.82 M118.03 45.61 C97.05 27.39, 74.26 8.81, 60.55 -2.85 M119.19 48.02 C102.47 32.41, 87.22 19.61, 61.56 -3.92 M114.54 40.35 C107.61 28.68, 97.25 21.1, 70.93 -2.15 M114.85 39.04 C100.39 25.97, 85.64 13.01, 70 -1.37 M112.24 32.58 C102.97 21.73, 93.51 11.36, 79.32 0.42 M111.96 31.74 C98.46 19.65, 85.93 7.91, 76.82 0.98"
            stroke="#fab005" stroke-width="0.5" fill="none"></path>
        <path
            d="M86.92 6.01 C94.95 8.79, 102.71 15.63, 107.94 22.63 C113.17 29.62, 116.82 39.19, 118.29 48.01 C119.75 56.82, 119.62 67.47, 116.74 75.51 C113.85 83.54, 108 90.6, 100.96 96.23 C93.92 101.86, 83.48 107.02, 74.48 109.3 C65.48 111.58, 56.04 111.65, 46.97 109.91 C37.9 108.18, 27.06 104.28, 20.05 98.88 C13.05 93.49, 8.25 85.69, 4.95 77.54 C1.65 69.39, -0.63 58.78, 0.23 49.99 C1.09 41.2, 4.92 32.05, 10.09 24.82 C15.26 17.58, 23.17 10.83, 31.25 6.6 C39.34 2.38, 48.2 -0.83, 58.61 -0.53 C69.02 -0.23, 87.23 6.02, 93.71 8.4 C100.2 10.78, 98.37 12.91, 97.53 13.74 M40.9 2.22 C48.94 -1.49, 59.89 -1.17, 68.77 0.42 C77.65 2, 86.93 6.83, 94.16 11.73 C101.39 16.64, 108.14 22.12, 112.14 29.85 C116.14 37.59, 117.96 49.38, 118.17 58.14 C118.39 66.9, 117.89 74.77, 113.41 82.39 C108.92 90.01, 99.27 98.87, 91.29 103.88 C83.3 108.88, 74.51 111.89, 65.51 112.42 C56.51 112.95, 45.99 110.42, 37.28 107.06 C28.56 103.7, 19.06 98.87, 13.21 92.25 C7.37 85.63, 3.82 75.64, 2.19 67.33 C0.55 59.01, 1.09 50.65, 3.41 42.36 C5.72 34.07, 9.85 24.36, 16.07 17.59 C22.28 10.81, 36.52 3.98, 40.7 1.71 C44.89 -0.55, 41.18 2.81, 41.16 3.98"
            stroke="#000000" stroke-width="1" fill="none"></path>
    </g>
</svg>