<svg version="1.1" xmlns="http://www.w3.org/2000/svg" viewBox="0 0 83.9143436846316 196.95835193470504"
    width="167.8286873692632" height="393.91670386941007">
    <!-- svg-source:excalidraw -->

    <g stroke-linecap="round"
        transform="translate(10 10.000000000000028) rotate(0 31.957171842315915 47.33698770576164)">
        <path
            class="deciduous leaves" d="M11.35 11.19 C11.35 11.19, 11.35 11.19, 11.35 11.19 M11.35 11.19 C11.35 11.19, 11.35 11.19, 11.35 11.19 M6.5 22.87 C10.88 17.83, 15.26 12.8, 24.21 2.5 M6.5 22.87 C12.07 16.47, 17.63 10.06, 24.21 2.5 M1.64 34.55 C11.38 23.35, 21.12 12.15, 29.85 2.1 M1.64 34.55 C12.21 22.39, 22.78 10.23, 29.85 2.1 M1.38 40.95 C11.45 29.37, 21.52 17.78, 36.81 0.2 M1.38 40.95 C15.02 25.27, 28.65 9.59, 36.81 0.2 M0.46 48.1 C16.02 30.21, 31.58 12.31, 40.48 2.07 M0.46 48.1 C16.03 30.2, 31.6 12.29, 40.48 2.07 M0.2 54.5 C15.25 37.19, 30.29 19.89, 43.5 4.69 M0.2 54.5 C14.85 37.65, 29.5 20.81, 43.5 4.69 M1.25 59.39 C15.99 42.44, 30.72 25.49, 47.18 6.56 M1.25 59.39 C14.31 44.37, 27.37 29.34, 47.18 6.56 M3.62 62.77 C15.27 49.36, 26.93 35.95, 50.85 8.43 M3.62 62.77 C21.25 42.48, 38.89 22.19, 50.85 8.43 M4.01 68.41 C21.07 48.79, 38.13 29.16, 53.22 11.81 M4.01 68.41 C15.79 54.86, 27.57 41.31, 53.22 11.81 M5.06 73.3 C16.81 59.79, 28.55 46.28, 55.58 15.19 M5.06 73.3 C25.19 50.15, 45.31 27, 55.58 15.19 M7.42 76.68 C18.13 64.36, 28.85 52.04, 57.94 18.57 M7.42 76.68 C19.64 62.62, 31.86 48.57, 57.94 18.57 M9.79 80.06 C29.52 57.36, 49.26 34.65, 59.65 22.7 M9.79 80.06 C21.29 66.82, 32.8 53.58, 59.65 22.7 M12.15 83.44 C22.15 71.94, 32.14 60.44, 61.35 26.83 M12.15 83.44 C26.37 67.08, 40.59 50.72, 61.35 26.83 M14.51 86.82 C27.72 71.63, 40.92 56.44, 63.72 30.21 M14.51 86.82 C34.07 64.32, 53.63 41.82, 63.72 30.21 M17.53 89.44 C33.7 70.84, 49.87 52.24, 64.11 35.86 M17.53 89.44 C35.58 68.68, 53.63 47.92, 64.11 35.86 M20.55 92.06 C30.33 80.82, 40.11 69.57, 64.51 41.5 M20.55 92.06 C35.26 75.14, 49.98 58.21, 64.51 41.5 M24.23 93.93 C32.69 84.2, 41.15 74.46, 64.24 47.9 M24.23 93.93 C38.36 77.68, 52.49 61.42, 64.24 47.9 M28.56 95.05 C38.16 84, 47.76 72.95, 63.98 54.29 M28.56 95.05 C42.31 79.23, 56.07 63.4, 63.98 54.29 M33.54 95.41 C42.53 85.07, 51.53 74.72, 63.07 61.45 M33.54 95.41 C39.78 88.23, 46.02 81.05, 63.07 61.45 M41.15 92.75 C46.78 86.28, 52.4 79.82, 62.15 68.6 M41.15 92.75 C45.63 87.61, 50.1 82.46, 62.15 68.6 M14.48 86.99 C14.48 86.99, 14.48 86.99, 14.48 86.99 M14.48 86.99 C14.48 86.99, 14.48 86.99, 14.48 86.99 M27.67 93.15 C21.89 88.12, 16.1 83.09, 8.81 76.75 M27.67 93.15 C20.63 87.03, 13.58 80.9, 8.81 76.75 M33.32 92.76 C23.87 84.55, 14.42 76.33, 3.13 66.52 M33.32 92.76 C22.64 83.48, 11.96 74.19, 3.13 66.52 M38.2 91.71 C26.52 81.55, 14.83 71.39, 1.98 60.22 M38.2 91.71 C25.77 80.9, 13.33 70.09, 1.98 60.22 M43.09 90.66 C28.39 77.87, 13.68 65.09, 0.83 53.92 M43.09 90.66 C28.91 78.33, 14.73 66, 0.83 53.92 M46.47 88.3 C33.07 76.64, 19.66 64.99, 0.43 48.28 M46.47 88.3 C32.39 76.06, 18.32 63.82, 0.43 48.28 M49.85 85.93 C37.92 75.56, 25.99 65.19, 2.3 44.6 M49.85 85.93 C40.1 77.46, 30.36 68.99, 2.3 44.6 M52.48 82.91 C40.93 72.88, 29.39 62.85, 1.91 38.96 M52.48 82.91 C34.61 67.38, 16.74 51.85, 1.91 38.96 M55.1 79.9 C42.61 69.04, 30.11 58.18, 1.52 33.31 M55.1 79.9 C42.54 68.98, 29.99 58.06, 1.52 33.31 M57.72 76.88 C36.21 58.17, 14.69 39.47, 2.63 28.98 M57.72 76.88 C41.86 63.08, 25.99 49.29, 2.63 28.98 M58.84 72.55 C45.43 60.89, 32.02 49.23, 4.5 25.31 M58.84 72.55 C42.25 58.13, 25.67 43.71, 4.5 25.31 M60.71 68.87 C45.53 55.68, 30.35 42.48, 5.61 20.98 M60.71 68.87 C48.53 58.29, 36.36 47.71, 5.61 20.98 M62.58 65.2 C41.4 46.79, 20.23 28.38, 7.48 17.3 M62.58 65.2 C45.58 50.42, 28.58 35.65, 7.48 17.3 M62.94 60.21 C51.27 50.06, 39.6 39.92, 10.11 14.28 M62.94 60.21 C43.24 43.09, 23.54 25.96, 10.11 14.28 M64.05 55.88 C49.52 43.24, 34.98 30.61, 11.98 10.61 M64.05 55.88 C46.11 40.28, 28.16 24.68, 11.98 10.61 M65.17 51.55 C54.78 42.52, 44.4 33.49, 14.6 7.59 M65.17 51.55 C51.32 39.51, 37.48 27.48, 14.6 7.59 M64.77 45.9 C50.27 33.3, 35.77 20.69, 17.23 4.57 M64.77 45.9 C49.4 32.54, 34.03 19.18, 17.23 4.57 M64.38 40.26 C53.52 30.82, 42.65 21.38, 20.6 2.21 M64.38 40.26 C48.49 26.45, 32.59 12.63, 20.6 2.21 M63.23 33.96 C48.74 21.37, 34.25 8.77, 24.74 0.5 M63.23 33.96 C49.24 21.8, 35.24 9.63, 24.74 0.5 M61.32 27.01 C54.54 21.11, 47.76 15.21, 28.87 -1.2 M61.32 27.01 C48.68 16.02, 36.04 5.03, 28.87 -1.2 M60.18 20.71 C52.02 13.62, 43.86 6.53, 36.78 0.37 M60.18 20.71 C50.96 12.7, 41.74 4.68, 36.78 0.37"
            stroke="#12b886" stroke-width="0.5" fill="none"></path>
        <path
            d="M63.91 47.34 C63.91 49.58, 63.8 51.85, 63.59 54.07 C63.37 56.3, 63.05 58.52, 62.62 60.67 C62.19 62.83, 61.66 64.96, 61.03 67 C60.4 69.04, 59.66 71.04, 58.84 72.93 C58.02 74.82, 57.1 76.64, 56.11 78.34 C55.12 80.03, 54.03 81.64, 52.88 83.11 C51.74 84.58, 50.51 85.95, 49.23 87.16 C47.96 88.37, 46.61 89.46, 45.23 90.4 C43.85 91.33, 42.42 92.12, 40.96 92.76 C39.51 93.39, 38.01 93.87, 36.51 94.19 C35 94.51, 33.47 94.67, 31.96 94.67 C30.44 94.67, 28.91 94.51, 27.41 94.19 C25.91 93.87, 24.41 93.39, 22.95 92.76 C21.5 92.12, 20.06 91.33, 18.68 90.4 C17.3 89.46, 15.96 88.37, 14.68 87.16 C13.4 85.95, 12.18 84.58, 11.03 83.11 C9.88 81.64, 8.8 80.03, 7.81 78.34 C6.81 76.64, 5.89 74.82, 5.07 72.93 C4.25 71.04, 3.52 69.04, 2.89 67 C2.26 64.96, 1.72 62.83, 1.29 60.67 C0.87 58.52, 0.54 56.3, 0.33 54.07 C0.11 51.85, 0 49.58, 0 47.34 C0 45.09, 0.11 42.82, 0.33 40.6 C0.54 38.38, 0.87 36.16, 1.29 34 C1.72 31.85, 2.26 29.72, 2.89 27.67 C3.52 25.63, 4.25 23.63, 5.07 21.74 C5.89 19.86, 6.81 18.03, 7.81 16.34 C8.8 14.64, 9.88 13.03, 11.03 11.56 C12.18 10.09, 13.4 8.73, 14.68 7.51 C15.96 6.3, 17.3 5.21, 18.68 4.28 C20.06 3.34, 21.5 2.55, 22.95 1.92 C24.41 1.28, 25.91 0.8, 27.41 0.48 C28.91 0.16, 30.44 0, 31.96 0 C33.47 0, 35 0.16, 36.51 0.48 C38.01 0.8, 39.51 1.28, 40.96 1.92 C42.42 2.55, 43.85 3.34, 45.23 4.28 C46.61 5.21, 47.96 6.3, 49.23 7.51 C50.51 8.73, 51.74 10.09, 52.88 11.56 C54.03 13.03, 55.12 14.64, 56.11 16.34 C57.1 18.03, 58.02 19.86, 58.84 21.74 C59.66 23.63, 60.4 25.63, 61.03 27.67 C61.66 29.72, 62.19 31.85, 62.62 34 C63.05 36.16, 63.37 38.38, 63.59 40.6 C63.8 42.82, 63.86 46.21, 63.91 47.34 C63.97 48.46, 63.97 46.21, 63.91 47.34"
            stroke="#000000" stroke-width="1" fill="none"></path>
    </g>
    <g stroke-linecap="round">
        <g transform="translate(41.60256044891344 186.95835193470504) rotate(0 0 -68.79243033198884)">
            <path d="M0 0 C0 -22.93, 0 -114.65, 0 -137.58 M0 0 C0 -22.93, 0 -114.65, 0 -137.58" stroke="#000000"
                stroke-width="1" fill="none"></path>
        </g>
    </g>
</svg>