<svg version="1.1" xmlns="http://www.w3.org/2000/svg" viewBox="0 0 73.67916306370023 160.11074017927828"
    width="147.35832612740046" height="320.22148035855656">
    <!-- svg-source:excalidraw -->

    <g stroke-linecap="round">
        <g transform="translate(33.278283254226835 10) rotate(0 3.5612982776232798 59.4078087546704)"
            fill-rule="evenodd">
            <path
                d="M0 0 C0 0, 0 0, 0 0 M0 0 C0 0, 0 0, 0 0 M-2.23 8.66 C-1.14 7.41, -0.06 6.16, 1.71 4.13 M-2.23 8.66 C-1.26 7.55, -0.29 6.43, 1.71 4.13 M-4.46 17.32 C-2.09 14.59, 0.29 11.86, 2.76 9.02 M-4.46 17.32 C-1.77 14.23, 0.92 11.14, 2.76 9.02 M-6.69 25.99 C-4.35 23.3, -2.01 20.61, 4.46 13.16 M-6.69 25.99 C-4.17 23.09, -1.66 20.2, 4.46 13.16 M-9.57 35.4 C-4.93 30.06, -0.28 24.72, 6.17 17.29 M-9.57 35.4 C-5.08 30.23, -0.58 25.05, 6.17 17.29 M-11.8 44.06 C-7.43 39.03, -3.06 34, 7.88 21.42 M-11.8 44.06 C-6.7 38.19, -1.6 32.32, 7.88 21.42 M-14.03 52.73 C-8.47 46.33, -2.91 39.93, 8.93 26.31 M-14.03 52.73 C-7.72 45.46, -1.41 38.2, 8.93 26.31 M-16.26 61.39 C-8.93 52.95, -1.59 44.51, 10.63 30.45 M-16.26 61.39 C-6.04 49.62, 4.19 37.86, 10.63 30.45 M-18.49 70.05 C-10.73 61.12, -2.97 52.19, 12.34 34.58 M-18.49 70.05 C-8.06 58.05, 2.37 46.05, 12.34 34.58 M-20.07 77.96 C-7.01 62.93, 6.05 47.91, 13.39 39.47 M-20.07 77.96 C-9.17 65.42, 1.74 52.88, 13.39 39.47 M-21.64 85.86 C-9.68 72.1, 2.29 58.34, 15.1 43.6 M-21.64 85.86 C-9.57 71.98, 2.49 58.11, 15.1 43.6 M-22.56 93.02 C-7.82 76.06, 6.92 59.1, 16.81 47.73 M-22.56 93.02 C-13.17 82.21, -3.77 71.41, 16.81 47.73 M-22.16 98.66 C-10.72 85.5, 0.72 72.33, 17.86 52.62 M-22.16 98.66 C-12.07 87.04, -1.97 75.43, 17.86 52.62 M-21.77 104.3 C-9.58 90.28, 2.61 76.26, 19.56 56.76 M-21.77 104.3 C-6.66 86.92, 8.46 69.53, 19.56 56.76 M-20.72 109.19 C-9.17 95.91, 2.37 82.63, 21.27 60.89 M-20.72 109.19 C-5.1 91.23, 10.52 73.26, 21.27 60.89 M-18.36 112.57 C-2.17 93.95, 14.02 75.33, 22.98 65.02 M-18.36 112.57 C-3.53 95.52, 11.29 78.47, 22.98 65.02 M-15.34 115.19 C-5.11 103.43, 5.11 91.67, 24.68 69.16 M-15.34 115.19 C-3.17 101.2, 8.99 87.21, 24.68 69.16 M-11.66 117.06 C2.61 100.65, 16.88 84.23, 26.39 73.29 M-11.66 117.06 C2.57 100.7, 16.79 84.33, 26.39 73.29 M-7.33 118.18 C3.47 105.76, 14.26 93.34, 27.44 78.18 M-7.33 118.18 C3.78 105.4, 14.88 92.63, 27.44 78.18 M-3 119.29 C7.26 107.49, 17.53 95.68, 28.49 83.07 M-3 119.29 C8.74 105.79, 20.47 92.29, 28.49 83.07 M1.99 119.65 C11.45 108.77, 20.91 97.89, 29.54 87.96 M1.99 119.65 C8.72 111.9, 15.46 104.16, 29.54 87.96 M6.32 120.77 C15.65 110.03, 24.99 99.29, 29.94 93.6 M6.32 120.77 C11.53 114.77, 16.75 108.77, 29.94 93.6 M13.93 118.11 C20.87 110.13, 27.81 102.14, 32.3 96.98 M13.93 118.11 C20.54 110.51, 27.15 102.91, 32.3 96.98 M21.54 115.45 C24.34 112.24, 27.13 109.02, 30.73 104.89 M21.54 115.45 C25.11 111.35, 28.68 107.24, 30.73 104.89 M-18.66 112.92 C-18.66 112.92, -18.66 112.92, -18.66 112.92 M-18.66 112.92 C-18.66 112.92, -18.66 112.92, -18.66 112.92 M-10.75 114.49 C-13.33 112.25, -15.92 110, -21.32 105.31 M-10.75 114.49 C-13.41 112.18, -16.06 109.88, -21.32 105.31 M-2.84 116.07 C-9.4 110.37, -15.95 104.67, -21.71 99.66 M-2.84 116.07 C-9.57 110.22, -16.3 104.37, -21.71 99.66 M5.06 117.64 C-4.64 109.2, -14.34 100.77, -20.6 95.33 M5.06 117.64 C-4.91 108.97, -14.89 100.3, -20.6 95.33 M10.71 117.25 C3.55 111.02, -3.61 104.8, -20.24 90.35 M10.71 117.25 C-0.84 107.21, -12.39 97.17, -20.24 90.35 M14.84 115.54 C2.88 105.14, -9.09 94.74, -20.63 84.7 M14.84 115.54 C4.71 106.73, -5.42 97.92, -20.63 84.7 M18.97 113.83 C10.55 106.51, 2.12 99.18, -20.27 79.72 M18.97 113.83 C9.19 105.33, -0.59 96.83, -20.27 79.72 M23.11 112.13 C9.39 100.2, -4.33 88.28, -19.16 75.39 M23.11 112.13 C13.34 103.64, 3.58 95.15, -19.16 75.39 M26.49 109.76 C16.58 101.15, 6.67 92.53, -18.04 71.05 M26.49 109.76 C15.85 100.51, 5.21 91.26, -18.04 71.05 M29.87 107.4 C20.07 98.89, 10.28 90.37, -16.17 67.38 M29.87 107.4 C19.79 98.64, 9.71 89.88, -16.17 67.38 M30.98 103.07 C17.15 91.05, 3.32 79.03, -15.06 63.05 M30.98 103.07 C19.42 93.02, 7.86 82.97, -15.06 63.05 M31.34 98.08 C20.24 88.43, 9.14 78.78, -13.94 58.72 M31.34 98.08 C20.12 88.33, 8.9 78.57, -13.94 58.72 M31.7 93.09 C17.71 80.94, 3.73 68.78, -12.83 54.39 M31.7 93.09 C16.15 79.58, 0.6 66.06, -12.83 54.39 M30.55 86.8 C16.39 74.48, 2.22 62.17, -11.71 50.06 M30.55 86.8 C21.2 78.67, 11.86 70.55, -11.71 50.06 M29.4 80.5 C19.41 71.81, 9.41 63.12, -10.6 45.73 M29.4 80.5 C19.35 71.76, 9.29 63.02, -10.6 45.73 M27.5 73.54 C13.94 61.75, 0.38 49.97, -9.48 41.39 M27.5 73.54 C18.37 65.61, 9.24 57.67, -9.48 41.39 M24.84 65.93 C14.41 56.86, 3.98 47.8, -8.37 37.06 M24.84 65.93 C17.19 59.28, 9.54 52.63, -8.37 37.06 M22.18 58.32 C13.53 50.8, 4.89 43.28, -7.25 32.73 M22.18 58.32 C12.24 49.68, 2.31 41.04, -7.25 32.73 M19.52 50.71 C13.53 45.5, 7.53 40.28, -6.14 28.4 M19.52 50.71 C14.04 45.94, 8.55 41.17, -6.14 28.4 M17.62 43.75 C12.16 39.01, 6.71 34.27, -5.02 24.07 M17.62 43.75 C10.58 37.64, 3.55 31.52, -5.02 24.07 M14.96 36.14 C8.25 30.31, 1.54 24.48, -3.91 19.74 M14.96 36.14 C9.61 31.49, 4.25 26.83, -3.91 19.74 M12.3 28.53 C9.24 25.87, 6.17 23.21, -2.79 15.41 M12.3 28.53 C7.95 24.75, 3.6 20.96, -2.79 15.41 M9.64 20.92 C5.71 17.5, 1.78 14.08, -1.68 11.08 M9.64 20.92 C5.37 17.21, 1.1 13.5, -1.68 11.08 M6.98 13.31 C4.64 11.27, 2.3 9.24, 0.19 7.4 M6.98 13.31 C4.29 10.96, 1.59 8.62, 0.19 7.4 M4.32 5.7 C3.43 4.92, 2.53 4.14, 1.3 3.07 M4.32 5.7 C3.16 4.68, 2 3.67, 1.3 3.07"
                stroke="none" fill="white"></path>
            <path
                d="M0 0 C0 0, 0 0, 0 0 M0 0 C0 0, 0 0, 0 0 M-2.23 8.66 C-1.14 7.41, -0.06 6.16, 1.71 4.13 M-2.23 8.66 C-1.26 7.55, -0.29 6.43, 1.71 4.13 M-4.46 17.32 C-2.09 14.59, 0.29 11.86, 2.76 9.02 M-4.46 17.32 C-1.77 14.23, 0.92 11.14, 2.76 9.02 M-6.69 25.99 C-4.35 23.3, -2.01 20.61, 4.46 13.16 M-6.69 25.99 C-4.17 23.09, -1.66 20.2, 4.46 13.16 M-9.57 35.4 C-4.93 30.06, -0.28 24.72, 6.17 17.29 M-9.57 35.4 C-5.08 30.23, -0.58 25.05, 6.17 17.29 M-11.8 44.06 C-7.43 39.03, -3.06 34, 7.88 21.42 M-11.8 44.06 C-6.7 38.19, -1.6 32.32, 7.88 21.42 M-14.03 52.73 C-8.47 46.33, -2.91 39.93, 8.93 26.31 M-14.03 52.73 C-7.72 45.46, -1.41 38.2, 8.93 26.31 M-16.26 61.39 C-8.93 52.95, -1.59 44.51, 10.63 30.45 M-16.26 61.39 C-6.04 49.62, 4.19 37.86, 10.63 30.45 M-18.49 70.05 C-10.73 61.12, -2.97 52.19, 12.34 34.58 M-18.49 70.05 C-8.06 58.05, 2.37 46.05, 12.34 34.58 M-20.07 77.96 C-7.01 62.93, 6.05 47.91, 13.39 39.47 M-20.07 77.96 C-9.17 65.42, 1.74 52.88, 13.39 39.47 M-21.64 85.86 C-9.68 72.1, 2.29 58.34, 15.1 43.6 M-21.64 85.86 C-9.57 71.98, 2.49 58.11, 15.1 43.6 M-22.56 93.02 C-7.82 76.06, 6.92 59.1, 16.81 47.73 M-22.56 93.02 C-13.17 82.21, -3.77 71.41, 16.81 47.73 M-22.16 98.66 C-10.72 85.5, 0.72 72.33, 17.86 52.62 M-22.16 98.66 C-12.07 87.04, -1.97 75.43, 17.86 52.62 M-21.77 104.3 C-9.58 90.28, 2.61 76.26, 19.56 56.76 M-21.77 104.3 C-6.66 86.92, 8.46 69.53, 19.56 56.76 M-20.72 109.19 C-9.17 95.91, 2.37 82.63, 21.27 60.89 M-20.72 109.19 C-5.1 91.23, 10.52 73.26, 21.27 60.89 M-18.36 112.57 C-2.17 93.95, 14.02 75.33, 22.98 65.02 M-18.36 112.57 C-3.53 95.52, 11.29 78.47, 22.98 65.02 M-15.34 115.19 C-5.11 103.43, 5.11 91.67, 24.68 69.16 M-15.34 115.19 C-3.17 101.2, 8.99 87.21, 24.68 69.16 M-11.66 117.06 C2.61 100.65, 16.88 84.23, 26.39 73.29 M-11.66 117.06 C2.57 100.7, 16.79 84.33, 26.39 73.29 M-7.33 118.18 C3.47 105.76, 14.26 93.34, 27.44 78.18 M-7.33 118.18 C3.78 105.4, 14.88 92.63, 27.44 78.18 M-3 119.29 C7.26 107.49, 17.53 95.68, 28.49 83.07 M-3 119.29 C8.74 105.79, 20.47 92.29, 28.49 83.07 M1.99 119.65 C11.45 108.77, 20.91 97.89, 29.54 87.96 M1.99 119.65 C8.72 111.9, 15.46 104.16, 29.54 87.96 M6.32 120.77 C15.65 110.03, 24.99 99.29, 29.94 93.6 M6.32 120.77 C11.53 114.77, 16.75 108.77, 29.94 93.6 M13.93 118.11 C20.87 110.13, 27.81 102.14, 32.3 96.98 M13.93 118.11 C20.54 110.51, 27.15 102.91, 32.3 96.98 M21.54 115.45 C24.34 112.24, 27.13 109.02, 30.73 104.89 M21.54 115.45 C25.11 111.35, 28.68 107.24, 30.73 104.89 M-18.66 112.92 C-18.66 112.92, -18.66 112.92, -18.66 112.92 M-18.66 112.92 C-18.66 112.92, -18.66 112.92, -18.66 112.92 M-10.75 114.49 C-13.33 112.25, -15.92 110, -21.32 105.31 M-10.75 114.49 C-13.41 112.18, -16.06 109.88, -21.32 105.31 M-2.84 116.07 C-9.4 110.37, -15.95 104.67, -21.71 99.66 M-2.84 116.07 C-9.57 110.22, -16.3 104.37, -21.71 99.66 M5.06 117.64 C-4.64 109.2, -14.34 100.77, -20.6 95.33 M5.06 117.64 C-4.91 108.97, -14.89 100.3, -20.6 95.33 M10.71 117.25 C3.55 111.02, -3.61 104.8, -20.24 90.35 M10.71 117.25 C-0.84 107.21, -12.39 97.17, -20.24 90.35 M14.84 115.54 C2.88 105.14, -9.09 94.74, -20.63 84.7 M14.84 115.54 C4.71 106.73, -5.42 97.92, -20.63 84.7 M18.97 113.83 C10.55 106.51, 2.12 99.18, -20.27 79.72 M18.97 113.83 C9.19 105.33, -0.59 96.83, -20.27 79.72 M23.11 112.13 C9.39 100.2, -4.33 88.28, -19.16 75.39 M23.11 112.13 C13.34 103.64, 3.58 95.15, -19.16 75.39 M26.49 109.76 C16.58 101.15, 6.67 92.53, -18.04 71.05 M26.49 109.76 C15.85 100.51, 5.21 91.26, -18.04 71.05 M29.87 107.4 C20.07 98.89, 10.28 90.37, -16.17 67.38 M29.87 107.4 C19.79 98.64, 9.71 89.88, -16.17 67.38 M30.98 103.07 C17.15 91.05, 3.32 79.03, -15.06 63.05 M30.98 103.07 C19.42 93.02, 7.86 82.97, -15.06 63.05 M31.34 98.08 C20.24 88.43, 9.14 78.78, -13.94 58.72 M31.34 98.08 C20.12 88.33, 8.9 78.57, -13.94 58.72 M31.7 93.09 C17.71 80.94, 3.73 68.78, -12.83 54.39 M31.7 93.09 C16.15 79.58, 0.6 66.06, -12.83 54.39 M30.55 86.8 C16.39 74.48, 2.22 62.17, -11.71 50.06 M30.55 86.8 C21.2 78.67, 11.86 70.55, -11.71 50.06 M29.4 80.5 C19.41 71.81, 9.41 63.12, -10.6 45.73 M29.4 80.5 C19.35 71.76, 9.29 63.02, -10.6 45.73 M27.5 73.54 C13.94 61.75, 0.38 49.97, -9.48 41.39 M27.5 73.54 C18.37 65.61, 9.24 57.67, -9.48 41.39 M24.84 65.93 C14.41 56.86, 3.98 47.8, -8.37 37.06 M24.84 65.93 C17.19 59.28, 9.54 52.63, -8.37 37.06 M22.18 58.32 C13.53 50.8, 4.89 43.28, -7.25 32.73 M22.18 58.32 C12.24 49.68, 2.31 41.04, -7.25 32.73 M19.52 50.71 C13.53 45.5, 7.53 40.28, -6.14 28.4 M19.52 50.71 C14.04 45.94, 8.55 41.17, -6.14 28.4 M17.62 43.75 C12.16 39.01, 6.71 34.27, -5.02 24.07 M17.62 43.75 C10.58 37.64, 3.55 31.52, -5.02 24.07 M14.96 36.14 C8.25 30.31, 1.54 24.48, -3.91 19.74 M14.96 36.14 C9.61 31.49, 4.25 26.83, -3.91 19.74 M12.3 28.53 C9.24 25.87, 6.17 23.21, -2.79 15.41 M12.3 28.53 C7.95 24.75, 3.6 20.96, -2.79 15.41 M9.64 20.92 C5.71 17.5, 1.78 14.08, -1.68 11.08 M9.64 20.92 C5.37 17.21, 1.1 13.5, -1.68 11.08 M6.98 13.31 C4.64 11.27, 2.3 9.24, 0.19 7.4 M6.98 13.31 C4.29 10.96, 1.59 8.62, 0.19 7.4 M4.32 5.7 C3.43 4.92, 2.53 4.14, 1.3 3.07 M4.32 5.7 C3.16 4.68, 2 3.67, 1.3 3.07"
                stroke="#12b886" stroke-width="0.5" fill="none"></path>
            <path
                d="M0 0 C-3.76 17.83, -27.62 89.63, -22.59 107 C-17.55 124.37, 26.43 122.06, 30.2 104.23 C33.96 86.4, 5.03 17.37, 0 0 M0 0 C-3.76 17.83, -27.62 89.63, -22.59 107 C-17.55 124.37, 26.43 122.06, 30.2 104.23 C33.96 86.4, 5.03 17.37, 0 0"
                stroke="#000000" stroke-width="1" fill="none"></path>
        </g>
    </g>
    <!-- branches and trunk -->
    <g stroke-linecap="round">
        <!-- trunk -->
        <g transform="translate(37.583033038070425 150.11074017927828) rotate(0 0 -46.193947292192064)">
            <path d="M0 0 C0 -15.4, 0 -76.99, 0 -92.39 M0 0 C0 -15.4, 0 -76.99, 0 -92.39" stroke="#000000"
                stroke-width="1" fill="none"></path>
        </g>
        <g transform="translate(38.475374823107586 112.00890861849805) rotate(0 9.73219342589789 -9.47786148390847)">
            <path d="M0 0 C3.24 -3.16, 16.22 -15.8, 19.46 -18.96 M0 0 C3.24 -3.16, 16.22 -15.8, 19.46 -18.96"
                stroke="#000000" stroke-width="1" fill="none"></path>
        </g>
        <g transform="translate(37.269114755386454 95.09220116274483) rotate(0 -6.430238156183918 -4.479148829779319)">
            <path d="M0 0 C-2.14 -1.49, -10.72 -7.47, -12.86 -8.96 M0 0 C-2.14 -1.49, -10.72 -7.47, -12.86 -8.96"
                stroke="#000000" stroke-width="1" fill="none"></path>
        </g>
        <g transform="translate(37.77911982811213 84.84771053941117) rotate(0 5.649075762930636 -5.5)">
            <path d="M0 0 C1.88 -1.83, 9.42 -9.17, 11.3 -11 M0 0 C1.88 -1.83, 9.42 -9.17, 11.3 -11" stroke="#000000"
                stroke-width="1" fill="none"></path>
        </g>
    </g>
</svg>