<svg version="1.1" xmlns="http://www.w3.org/2000/svg" viewBox="0 0 132.6242414343543 164.8917828833981"
    width="265.2484828687086" height="329.7835657667962">
    <!-- svg-source:excalidraw -->

    <g stroke-linecap="round">
        <g transform="translate(67.0336425002298 10) rotate(0 -0.7215217830526512 43.14402177660702)"
            fill-rule="evenodd">
            <path
                class="deciduous leaves" d="M-54.67 12.11 C-54.67 12.11, -54.67 12.11, -54.67 12.11 M-54.67 12.11 C-54.67 12.11, -54.67 12.11, -54.67 12.11 M-54.93 18.5 C-50.9 13.87, -46.87 9.23, -43.77 5.67 M-54.93 18.5 C-51.12 14.12, -47.3 9.73, -43.77 5.67 M-56.5 26.41 C-52.08 21.32, -47.66 16.24, -37.48 4.52 M-56.5 26.41 C-51.19 20.3, -45.88 14.19, -37.48 4.52 M-56.11 32.05 C-48.39 23.18, -40.68 14.31, -31.18 3.37 M-56.11 32.05 C-47.6 22.27, -39.1 12.49, -31.18 3.37 M-55.71 37.7 C-46.36 26.94, -37.01 16.18, -26.19 3.73 M-55.71 37.7 C-48.65 29.57, -41.58 21.44, -26.19 3.73 M-55.32 43.34 C-47.33 34.15, -39.35 24.97, -20.55 3.34 M-55.32 43.34 C-44.42 30.81, -33.53 18.27, -20.55 3.34 M-53.61 47.47 C-43.25 35.56, -32.89 23.64, -14.9 2.95 M-53.61 47.47 C-44.46 36.95, -35.32 26.43, -14.9 2.95 M-51.9 51.61 C-39.61 37.47, -27.32 23.33, -9.26 2.55 M-51.9 51.61 C-38.19 35.83, -24.48 20.06, -9.26 2.55 M-50.85 56.5 C-32.86 35.8, -14.87 15.1, -3.62 2.16 M-50.85 56.5 C-40.06 44.08, -29.27 31.67, -3.62 2.16 M-49.15 60.63 C-35.81 45.29, -22.48 29.96, 2.03 1.76 M-49.15 60.63 C-35.37 44.78, -21.6 28.94, 2.03 1.76 M-48.1 65.52 C-33.86 49.14, -19.62 32.76, 6.36 2.88 M-48.1 65.52 C-30.97 45.81, -13.84 26.11, 6.36 2.88 M-46.39 69.65 C-27.27 47.65, -8.15 25.66, 11.34 3.24 M-46.39 69.65 C-29.04 49.69, -11.69 29.73, 11.34 3.24 M-44.03 73.03 C-30.66 57.66, -17.3 42.28, 15.68 4.35 M-44.03 73.03 C-24.08 50.08, -4.12 27.13, 15.68 4.35 M-41.66 76.41 C-23.32 55.31, -4.97 34.2, 20.66 4.71 M-41.66 76.41 C-29.18 62.05, -16.7 47.69, 20.66 4.71 M-38.64 79.03 C-20.08 57.67, -1.51 36.31, 24.99 5.83 M-38.64 79.03 C-21.63 59.46, -4.61 39.88, 24.99 5.83 M-35.63 81.66 C-12.44 54.98, 10.75 28.31, 29.98 6.19 M-35.63 81.66 C-9.78 51.92, 16.07 22.18, 29.98 6.19 M-31.95 83.53 C-5.55 53.16, 20.84 22.79, 34.31 7.3 M-31.95 83.53 C-16.38 65.61, -0.81 47.7, 34.31 7.3 M-27.62 84.64 C-6.33 60.15, 14.96 35.66, 38.64 8.42 M-27.62 84.64 C-4.58 58.14, 18.46 31.64, 38.64 8.42 M-23.29 85.76 C2.3 56.32, 27.89 26.88, 42.97 9.53 M-23.29 85.76 C-3.52 63.02, 16.24 40.28, 42.97 9.53 M-18.96 86.87 C-4.37 70.09, 10.22 53.31, 47.3 10.65 M-18.96 86.87 C5.43 58.82, 29.82 30.76, 47.3 10.65 M-13.97 87.23 C-0.65 71.91, 12.66 56.59, 50.32 13.27 M-13.97 87.23 C2.71 68.05, 19.38 48.86, 50.32 13.27 M-8.98 87.59 C8.75 67.19, 26.49 46.78, 54 15.14 M-8.98 87.59 C3.76 72.93, 16.51 58.27, 54 15.14 M-4 87.95 C15.47 65.56, 34.93 43.17, 56.36 18.52 M-4 87.95 C11.75 69.84, 27.49 51.73, 56.36 18.52 M1.65 87.56 C20.75 65.58, 39.85 43.6, 56.76 24.16 M1.65 87.56 C14.8 72.43, 27.95 57.3, 56.76 24.16 M7.95 86.41 C22.45 69.72, 36.96 53.03, 55.84 31.31 M7.95 86.41 C26.43 65.15, 44.91 43.89, 55.84 31.31 M14.9 84.5 C25.18 72.68, 35.46 60.85, 53.61 39.98 M14.9 84.5 C26.72 70.91, 38.54 57.31, 53.61 39.98 M21.86 82.6 C28.45 75.01, 35.04 67.43, 50.72 49.39 M21.86 82.6 C29.32 74.02, 36.78 65.43, 50.72 49.39 M30.78 78.43 C34.69 73.93, 38.6 69.43, 43.9 63.34 M30.78 78.43 C34.34 74.33, 37.91 70.23, 43.9 63.34 M-40.16 78.21 C-40.16 78.21, -40.16 78.21, -40.16 78.21 M-40.16 78.21 C-40.16 78.21, -40.16 78.21, -40.16 78.21 M-32.25 79.78 C-35.8 76.7, -39.35 73.61, -43.57 69.94 M-32.25 79.78 C-35.05 77.34, -37.86 74.9, -43.57 69.94 M-23.59 82.01 C-32.52 74.25, -41.45 66.48, -46.99 61.67 M-23.59 82.01 C-29.32 77.03, -35.04 72.05, -46.99 61.67 M-16.44 82.93 C-29.09 71.93, -41.74 60.93, -48.89 54.72 M-16.44 82.93 C-28.88 72.11, -41.33 61.29, -48.89 54.72 M-10.04 83.19 C-24.13 70.94, -38.21 58.7, -54.57 44.48 M-10.04 83.19 C-23.81 71.21, -37.59 59.24, -54.57 44.48 M-3.64 83.45 C-14.69 73.85, -25.74 64.24, -54.96 38.84 M-3.64 83.45 C-17.51 71.39, -31.39 59.33, -54.96 38.84 M2 83.05 C-10.04 72.58, -22.09 62.11, -55.36 33.19 M2 83.05 C-10.8 71.93, -23.6 60.8, -55.36 33.19 M7.65 82.66 C-10.55 66.84, -28.74 51.03, -55.75 27.55 M7.65 82.66 C-13.9 63.93, -35.44 45.21, -55.75 27.55 M14.8 83.58 C-5.3 66.1, -25.41 48.63, -54.64 23.22 M14.8 83.58 C-6.96 64.67, -28.71 45.76, -54.64 23.22 M19.69 82.53 C-3.82 62.09, -27.33 41.65, -55.78 16.92 M19.69 82.53 C-0.26 65.19, -20.21 47.85, -55.78 16.92 M24.57 81.48 C1.72 61.61, -21.13 41.74, -53.92 13.25 M24.57 81.48 C5.16 64.6, -14.25 47.73, -53.92 13.25 M27.95 79.11 C11.57 64.87, -4.82 50.63, -52.05 9.57 M27.95 79.11 C-0.59 54.3, -29.13 29.5, -52.05 9.57 M32.09 77.41 C10.84 58.94, -10.4 40.48, -49.42 6.55 M32.09 77.41 C13.06 60.87, -5.97 44.33, -49.42 6.55 M34.71 74.39 C11.33 54.06, -12.05 33.74, -45.29 4.85 M34.71 74.39 C5.06 48.61, -24.6 22.83, -45.29 4.85 M38.09 72.03 C9.86 47.49, -18.37 22.95, -41.91 2.48 M38.09 72.03 C20.44 56.69, 2.8 41.34, -41.91 2.48 M40.71 69.01 C16.73 48.15, -7.26 27.3, -37.02 1.43 M40.71 69.01 C17.37 48.71, -5.97 28.42, -37.02 1.43 M42.58 65.33 C25.22 50.24, 7.86 35.15, -32.13 0.38 M42.58 65.33 C20.3 45.96, -1.99 26.59, -32.13 0.38 M44.45 61.66 C16.23 37.12, -11.99 12.59, -26.49 -0.01 M44.45 61.66 C17.46 38.2, -9.52 14.73, -26.49 -0.01 M46.32 57.98 C27.99 42.05, 9.66 26.12, -20.85 -0.41 M46.32 57.98 C26.4 40.66, 6.48 23.35, -20.85 -0.41 M48.19 54.31 C28.32 37.03, 8.44 19.75, -15.2 -0.8 M48.19 54.31 C30.03 38.52, 11.87 22.73, -15.2 -0.8 M50.06 50.63 C28.74 32.1, 7.43 13.57, -9.56 -1.2 M50.06 50.63 C27.03 30.61, 4 10.59, -9.56 -1.2 M51.93 46.96 C39.73 36.35, 27.53 25.75, -3.92 -1.59 M51.93 46.96 C33.25 30.71, 14.56 14.47, -3.92 -1.59 M53.05 42.63 C38.73 30.18, 24.42 17.74, 1.73 -1.99 M53.05 42.63 C38.74 30.19, 24.43 17.75, 1.73 -1.99 M54.16 38.3 C41.48 27.27, 28.8 16.25, 9.63 -0.41 M54.16 38.3 C41.63 27.4, 29.1 16.51, 9.63 -0.41 M55.28 33.96 C42.23 22.63, 29.19 11.29, 16.79 0.51 M55.28 33.96 C46.58 26.4, 37.87 18.84, 16.79 0.51 M56.39 29.63 C47.06 21.53, 37.74 13.42, 24.69 2.08 M56.39 29.63 C46.12 20.7, 35.84 11.77, 24.69 2.08 M56.75 24.65 C47.8 16.87, 38.86 9.09, 31.09 2.34 M56.75 24.65 C51.09 19.72, 45.42 14.8, 31.09 2.34 M57.87 20.32 C54.82 17.66, 51.77 15.01, 45.04 9.16 M57.87 20.32 C54.01 16.96, 50.14 13.6, 45.04 9.16"
                stroke="#12b886" stroke-width="0.5" fill="none"></path>
            <path
                d="M0 0 C-9.06 1.96, -47.62 -1.21, -54.37 11.77 C-61.13 24.75, -54.67 66.72, -40.53 77.88 C-26.38 89.05, 14.64 88.84, 30.49 78.75 C46.35 68.65, 59.68 30.42, 54.6 17.29 C49.52 4.17, 9.1 2.88, 0 0 M0 0 C-9.06 1.96, -47.62 -1.21, -54.37 11.77 C-61.13 24.75, -54.67 66.72, -40.53 77.88 C-26.38 89.05, 14.64 88.84, 30.49 78.75 C46.35 68.65, 59.68 30.42, 54.6 17.29 C49.52 4.17, 9.1 2.88, 0 0"
                stroke="#000000" stroke-width="1" fill="none"></path>
        </g>
    </g>
    <g stroke-linecap="round">
        <g transform="translate(61.32457933561602 43.610658322657315) rotate(0 0.8022356113037858 55.64056228037039)">
            <path d="M0 0 C0.27 18.55, 1.34 92.73, 1.6 111.28 M0 0 C0.27 18.55, 1.34 92.73, 1.6 111.28" stroke="#000000"
                stroke-width="1" fill="none"></path>
        </g>
    </g>
    <g stroke-linecap="round">
        <g transform="translate(61.68937413994979 48.120785514742806) rotate(0 17.63600661687701 -5.999486109814114)">
            <path d="M0 0 C5.88 -2, 29.39 -10, 35.27 -12 M0 0 C5.88 -2, 29.39 -10, 35.27 -12" stroke="#000000"
                stroke-width="1" fill="none"></path>
        </g>
    </g>
    <g stroke-linecap="round">
        <g transform="translate(85.13453834177778 41.179586964519274) rotate(0 10.608746472802409 13.124393062296832)">
            <path d="M0 0 C3.54 4.37, 17.68 21.87, 21.22 26.25 M0 0 C3.54 4.37, 17.68 21.87, 21.22 26.25"
                stroke="#000000" stroke-width="1" fill="none"></path>
        </g>
    </g>
    <g stroke-linecap="round">
        <g transform="translate(62.28849523560564 80.48325486406844) rotate(0 -19.095743651044245 -13.073914627441837)">
            <path d="M0 0 C-6.37 -4.36, -31.83 -21.79, -38.19 -26.15 M0 0 C-6.37 -4.36, -31.83 -21.79, -38.19 -26.15"
                stroke="#000000" stroke-width="1" fill="none"></path>
        </g>
    </g>
    <g stroke-linecap="round">
        <g transform="translate(33.52571755216843 60.747014351093696) rotate(0 6.738457295478156 -16.94254877411508)">
            <path d="M0 0 C2.25 -5.65, 11.23 -28.24, 13.48 -33.89 M0 0 C2.25 -5.65, 11.23 -28.24, 13.48 -33.89"
                stroke="#000000" stroke-width="1" fill="none"></path>
        </g>
    </g>
</svg>